<svg xmlns="http://www.w3.org/2000/svg" width="1920" height="1080"
 viewBox="0 0 1920 1080" role="img" aria-labelledby="title desc">
<title id="title">训练任务生命周期与故障边界</title>
<desc id="desc">任务从代码快照、Kueue 准入、KubeRay 建群到 DDP 执行；TTL 只回收运行时，不删除历史证据</desc>
<defs>
  <filter id="shadow" x="-15%" y="-20%" width="130%" height="145%">
    <feDropShadow dx="0" dy="2" stdDeviation="3" flood-color="#163A66" flood-opacity=".09"/>
  </filter>
  <marker id="arrow-blue" markerWidth="9" markerHeight="9" refX="8" refY="3" orient="auto"><path d="M0 0L0 6L8 3Z" fill="#3272CF"/></marker>
  <marker id="arrow-green" markerWidth="9" markerHeight="9" refX="8" refY="3" orient="auto"><path d="M0 0L0 6L8 3Z" fill="#16805D"/></marker>
  <marker id="arrow-orange" markerWidth="9" markerHeight="9" refX="8" refY="3" orient="auto"><path d="M0 0L0 6L8 3Z" fill="#C96D20"/></marker>
  <marker id="arrow-red" markerWidth="9" markerHeight="9" refX="8" refY="3" orient="auto"><path d="M0 0L0 6L8 3Z" fill="#B54747"/></marker>
  <marker id="arrow-gray" markerWidth="9" markerHeight="9" refX="8" refY="3" orient="auto"><path d="M0 0L0 6L8 3Z" fill="#667085"/></marker>
</defs>
<style>
text{font-family:Inter,"PingFang SC","Microsoft YaHei","Noto Sans CJK SC",Arial,sans-serif;fill:#152445}
.page-title{font-size:34px;font-weight:800} .page-desc{font-size:13px;fill:#5D6B82}
.lane-title{font-size:16px;font-weight:800;fill:#FFFFFF} .box-title{font-size:14px;font-weight:760}
.box-line{font-size:11px;fill:#5A6881} .arrow{fill:none;stroke-width:2;stroke-linejoin:round}
.request,.control{stroke:#3272CF;marker-end:url(#arrow-blue)} .data{stroke:#16805D;stroke-width:2.6;marker-end:url(#arrow-green)}
.observe{stroke:#C96D20;stroke-dasharray:7 5;marker-end:url(#arrow-orange)} .failure{stroke:#B54747;stroke-dasharray:5 4;marker-end:url(#arrow-red)}
.planned{stroke:#667085;stroke-dasharray:9 6;marker-end:url(#arrow-gray)} .arrow-label{font-size:10px;fill:#526581}
.legend-text{font-size:11px;fill:#526581} .component{filter:url(#shadow)}
</style>
<rect width="1920" height="1080" fill="#F7FAFE"/>
<rect x="28" y="20" width="1864" height="70" rx="18" fill="#FFFFFF" stroke="#B6CBE8"/>
<text x="960" y="55" class="page-title" text-anchor="middle">训练任务生命周期与故障边界</text>
<text x="960" y="77" class="page-desc" text-anchor="middle">任务从代码快照、Kueue 准入、KubeRay 建群到 DDP 执行；TTL 只回收运行时，不删除历史证据</text>
<g class="lane"><rect x="28" y="110" width="1864" height="165" rx="18" fill="#F4F8FF" stroke="#8AB4F8" stroke-width="1.5"/><rect x="42" y="124" width="152" height="34" rx="9" fill="#2166C2"/><text x="56" y="147" class="lane-title">提交与准入</text></g><g class="lane"><rect x="28" y="290" width="1864" height="200" rx="18" fill="#F1FBF6" stroke="#7BC7A3" stroke-width="1.5"/><rect x="42" y="304" width="248" height="34" rx="9" fill="#16805D"/><text x="56" y="327" class="lane-title">RayJob 与分布式执行</text></g><g class="lane"><rect x="28" y="505" width="905" height="235" rx="18" fill="#FFF4F4" stroke="#E79A9A" stroke-width="1.5"/><rect x="42" y="519" width="177" height="34" rx="9" fill="#B54747"/><text x="56" y="542" class="lane-title">失败与取消分支</text></g><g class="lane"><rect x="950" y="505" width="942" height="235" rx="18" fill="#FFF7EC" stroke="#E6A15B" stroke-width="1.5"/><rect x="964" y="519" width="228" height="34" rx="9" fill="#C96D20"/><text x="978" y="542" class="lane-title">持久化结果与可观测性</text></g><g class="lane"><rect x="28" y="755" width="1864" height="245" rx="18" fill="#F8F4FF" stroke="#A995E8" stroke-width="1.5"/><rect x="42" y="769" width="177" height="34" rx="9" fill="#7353BE"/><text x="56" y="792" class="lane-title">终态与保留边界</text></g><g><polyline points="350,196 385,196" class="arrow request"/></g><g><polyline points="575,196 610,196" class="arrow request"/></g><g><polyline points="800,196 835,196" class="arrow control"/></g><g><polyline points="1035,196 1070,196" class="arrow control"/></g><g><polyline points="1260,196 1295,196" class="arrow control"/></g><g><polyline points="1495,196 1530,196" class="arrow control"/></g><g><rect x="201" y="300" width="108" height="17" rx="5" fill="#F8FBFF"/><text x="255" y="312" class="arrow-label" text-anchor="middle">Pod Ready</text><polyline points="1625,232 1625,320 255,320 255,345" class="arrow control"/></g><g><polyline points="350,388 395,388" class="arrow request"/></g><g><polyline points="585,388 630,388" class="arrow control"/></g><g><polyline points="840,388 885,388" class="arrow control"/></g><g><polyline points="1105,388 1150,388" class="arrow control"/></g><g><polyline points="1330,388 1375,388" class="arrow control"/></g><g><polyline points="1565,388 1610,388" class="arrow control"/></g><g><rect x="446" y="540" width="68" height="17" rx="5" fill="#F8FBFF"/><text x="480" y="552" class="arrow-label" text-anchor="middle">校验失败</text><polyline points="480,232 480,560" class="arrow failure"/></g><g><rect x="446" y="515" width="68" height="17" rx="5" fill="#F8FBFF"/><text x="480" y="527" class="arrow-label" text-anchor="middle">等待配额</text><polyline points="935,232 935,535 480,535 480,560" class="arrow failure"/></g><g><rect x="709" y="500" width="72" height="17" rx="5" fill="#F8FBFF"/><text x="745" y="512" class="arrow-label" text-anchor="middle">Pod 异常</text><polyline points="1625,232 1625,520 745,520 745,560" class="arrow failure"/></g><g><rect x="961" y="575" width="68" height="17" rx="5" fill="#F8FBFF"/><text x="995" y="587" class="arrow-label" text-anchor="middle">日志</text><polyline points="995,431 995,595 1000,595" class="arrow observe"/></g><g><rect x="1206" y="540" width="68" height="17" rx="5" fill="#F8FBFF"/><text x="1240" y="552" class="arrow-label" text-anchor="middle">资源</text><polyline points="1240,431 1240,560" class="arrow observe"/></g><g><rect x="1436" y="540" width="68" height="17" rx="5" fill="#F8FBFF"/><text x="1470" y="552" class="arrow-label" text-anchor="middle">指标</text><polyline points="1470,431 1470,560" class="arrow observe"/></g><g><rect x="1651" y="540" width="68" height="17" rx="5" fill="#F8FBFF"/><text x="1685" y="552" class="arrow-label" text-anchor="middle">状态</text><polyline points="1685,431 1685,560" class="arrow control"/></g><g><rect x="1410" y="661" width="120" height="17" rx="5" fill="#F8FBFF"/><text x="1470" y="673" class="arrow-label" text-anchor="middle">checkpoint</text><polyline points="1470,431 1470,681 1260,681" class="arrow data"/></g><g><rect x="1076" y="770" width="68" height="17" rx="5" fill="#F8FBFF"/><text x="1110" y="782" class="arrow-label" text-anchor="middle">终态</text><polyline points="1685,431 1685,790 1110,790 1110,815" class="arrow control"/></g><g><rect x="1236" y="837" width="68" height="17" rx="5" fill="#F8FBFF"/><text x="1270" y="849" class="arrow-label" text-anchor="middle">持久保留</text><polyline points="1230,857 1270,857" class="arrow data"/></g><g><polyline points="390,857 430,857" class="arrow failure"/></g><g><polyline points="670,857 710,857" class="arrow control"/></g><g><polyline points="950,857 990,857" class="arrow control"/></g><g><polyline points="550,949 600,949" class="arrow request"/></g><g class="component"><rect x="160" y="160" width="190" height="72" rx="12" fill="#FFFFFF" stroke="#8AB4F8" stroke-width="1.5"/><rect x="160" y="160" width="5" height="72" rx="3" fill="#2166C2"/><text x="255" y="189" class="box-title" text-anchor="middle">代码打包</text><text x="255" y="212" class="box-line" text-anchor="middle">working-dir / 快照</text></g><g class="component"><rect x="385" y="160" width="190" height="72" rx="12" fill="#FFFFFF" stroke="#8AB4F8" stroke-width="1.5"/><rect x="385" y="160" width="5" height="72" rx="3" fill="#2166C2"/><text x="480" y="189" class="box-title" text-anchor="middle">提交前检查</text><text x="480" y="212" class="box-line" text-anchor="middle">镜像 · 数据 · 配额</text></g><g class="component"><rect x="610" y="160" width="190" height="72" rx="12" fill="#FFFFFF" stroke="#8AB4F8" stroke-width="1.5"/><rect x="610" y="160" width="5" height="72" rx="3" fill="#2166C2"/><text x="705" y="189" class="box-title" text-anchor="middle">任务记录</text><text x="705" y="212" class="box-line" text-anchor="middle">主体 · 参数 · 时间</text></g><g class="component"><rect x="835" y="160" width="200" height="72" rx="12" fill="#FFFFFF" stroke="#8AB4F8" stroke-width="1.5"/><rect x="835" y="160" width="5" height="72" rx="3" fill="#2166C2"/><text x="935" y="189" class="box-title" text-anchor="middle">Kueue Workload</text><text x="935" y="212" class="box-line" text-anchor="middle">排队 · 准入</text></g><g class="component"><rect x="1070" y="160" width="190" height="72" rx="12" fill="#FFFFFF" stroke="#7BC7A3" stroke-width="1.5"/><rect x="1070" y="160" width="5" height="72" rx="3" fill="#16805D"/><text x="1165" y="189" class="box-title" text-anchor="middle">RayJob</text><text x="1165" y="212" class="box-line" text-anchor="middle">期望拓扑</text></g><g class="component"><rect x="1295" y="160" width="200" height="72" rx="12" fill="#FFFFFF" stroke="#7BC7A3" stroke-width="1.5"/><rect x="1295" y="160" width="5" height="72" rx="3" fill="#16805D"/><text x="1395" y="189" class="box-title" text-anchor="middle">KubeRay 建群</text><text x="1395" y="212" class="box-line" text-anchor="middle">RayCluster 生命周期</text></g><g class="component"><rect x="1530" y="160" width="190" height="72" rx="12" fill="#FFFFFF" stroke="#7BC7A3" stroke-width="1.5"/><rect x="1530" y="160" width="5" height="72" rx="3" fill="#16805D"/><text x="1625" y="189" class="box-title" text-anchor="middle">Pod 调度</text><text x="1625" y="212" class="box-line" text-anchor="middle">镜像 · 卷 · 节点</text></g><g class="component"><rect x="160" y="345" width="190" height="86" rx="12" fill="#FFFFFF" stroke="#7BC7A3" stroke-width="1.5"/><rect x="160" y="345" width="5" height="86" rx="3" fill="#16805D"/><text x="255" y="374" class="box-title" text-anchor="middle">Submitter</text><text x="255" y="397" class="box-line" text-anchor="middle">上传 runtime env</text><text x="255" y="415" class="box-line" text-anchor="middle">提交 Ray Job</text></g><g class="component"><rect x="395" y="345" width="190" height="86" rx="12" fill="#FFFFFF" stroke="#7BC7A3" stroke-width="1.5"/><rect x="395" y="345" width="5" height="86" rx="3" fill="#16805D"/><text x="490" y="374" class="box-title" text-anchor="middle">Ray Head</text><text x="490" y="397" class="box-line" text-anchor="middle">GCS</text><text x="490" y="415" class="box-line" text-anchor="middle">Dashboard</text></g><g class="component"><rect x="630" y="345" width="210" height="86" rx="12" fill="#FFFFFF" stroke="#7BC7A3" stroke-width="1.5"/><rect x="630" y="345" width="5" height="86" rx="3" fill="#16805D"/><text x="735" y="374" class="box-title" text-anchor="middle">Ray Worker</text><text x="735" y="397" class="box-line" text-anchor="middle">训练进程</text><text x="735" y="415" class="box-line" text-anchor="middle">数据与结果挂载</text></g><g class="component"><rect x="885" y="345" width="220" height="86" rx="12" fill="#FFFFFF" stroke="#7BC7A3" stroke-width="1.5"/><rect x="885" y="345" width="5" height="86" rx="3" fill="#16805D"/><text x="995" y="374" class="box-title" text-anchor="middle">PyTorch DDP</text><text x="995" y="397" class="box-line" text-anchor="middle">world size / rank</text><text x="995" y="415" class="box-line" text-anchor="middle">梯度同步</text></g><g class="component"><rect x="1150" y="345" width="180" height="86" rx="12" fill="#FFFFFF" stroke="#7BC7A3" stroke-width="1.5"/><rect x="1150" y="345" width="5" height="86" rx="3" fill="#16805D"/><text x="1240" y="374" class="box-title" text-anchor="middle">NCCL</text><text x="1240" y="397" class="box-line" text-anchor="middle">跨卡 / 跨节点</text><text x="1240" y="415" class="box-line" text-anchor="middle">collective</text></g><g class="component"><rect x="1375" y="345" width="190" height="86" rx="12" fill="#FFFFFF" stroke="#7BC7A3" stroke-width="1.5"/><rect x="1375" y="345" width="5" height="86" rx="3" fill="#16805D"/><text x="1470" y="374" class="box-title" text-anchor="middle">训练循环</text><text x="1470" y="397" class="box-line" text-anchor="middle">forward · backward</text><text x="1470" y="415" class="box-line" text-anchor="middle">Checkpoint</text></g><g class="component"><rect x="1610" y="345" width="150" height="86" rx="12" fill="#FFFFFF" stroke="#A995E8" stroke-width="1.5"/><rect x="1610" y="345" width="5" height="86" rx="3" fill="#7353BE"/><text x="1685" y="374" class="box-title" text-anchor="middle">终态回写</text><text x="1685" y="397" class="box-line" text-anchor="middle">return code</text><text x="1685" y="415" class="box-line" text-anchor="middle">结束时间</text></g><g class="component"><rect x="135" y="560" width="210" height="70" rx="12" fill="#FFFFFF" stroke="#E79A9A" stroke-width="1.5"/><rect x="135" y="560" width="5" height="70" rx="3" fill="#B54747"/><text x="240" y="589" class="box-title" text-anchor="middle">预检失败</text><text x="240" y="612" class="box-line" text-anchor="middle">不创建 RayCluster</text></g><g class="component"><rect x="375" y="560" width="210" height="70" rx="12" fill="#FFFFFF" stroke="#E79A9A" stroke-width="1.5"/><rect x="375" y="560" width="5" height="70" rx="3" fill="#B54747"/><text x="480" y="589" class="box-title" text-anchor="middle">未准入</text><text x="480" y="612" class="box-line" text-anchor="middle">保持排队 · 无 Worker</text></g><g class="component"><rect x="615" y="560" width="260" height="70" rx="12" fill="#FFFFFF" stroke="#E79A9A" stroke-width="1.5"/><rect x="615" y="560" width="5" height="70" rx="3" fill="#B54747"/><text x="745" y="589" class="box-title" text-anchor="middle">ImagePull / FailedMount</text><text x="745" y="612" class="box-line" text-anchor="middle">基础设施错误</text></g><g class="component"><rect x="135" y="650" width="210" height="62" rx="12" fill="#FFFFFF" stroke="#E79A9A" stroke-width="1.5"/><rect x="135" y="650" width="5" height="62" rx="3" fill="#B54747"/><text x="240" y="679" class="box-title" text-anchor="middle">Python / CUDA</text><text x="240" y="702" class="box-line" text-anchor="middle">代码或运行环境</text></g><g class="component"><rect x="375" y="650" width="210" height="62" rx="12" fill="#FFFFFF" stroke="#E79A9A" stroke-width="1.5"/><rect x="375" y="650" width="5" height="62" rx="3" fill="#B54747"/><text x="480" y="679" class="box-title" text-anchor="middle">NCCL / OOM / NaN</text><text x="480" y="702" class="box-line" text-anchor="middle">训练错误分类</text></g><g class="component"><rect x="615" y="650" width="260" height="62" rx="12" fill="#FFFFFF" stroke="#E79A9A" stroke-width="1.5"/><rect x="615" y="650" width="5" height="62" rx="3" fill="#B54747"/><text x="745" y="679" class="box-title" text-anchor="middle">用户取消</text><text x="745" y="702" class="box-line" text-anchor="middle">属主或授权管理员</text></g><g class="component"><rect x="1000" y="560" width="190" height="70" rx="12" fill="#FFFFFF" stroke="#E6A15B" stroke-width="1.5"/><rect x="1000" y="560" width="5" height="70" rx="3" fill="#C96D20"/><text x="1095" y="589" class="box-title" text-anchor="middle">Loki 日志</text><text x="1095" y="612" class="box-line" text-anchor="middle">stdout / stderr</text></g><g class="component"><rect x="1220" y="560" width="190" height="70" rx="12" fill="#FFFFFF" stroke="#E6A15B" stroke-width="1.5"/><rect x="1220" y="560" width="5" height="70" rx="3" fill="#C96D20"/><text x="1315" y="589" class="box-title" text-anchor="middle">Prometheus</text><text x="1315" y="612" class="box-line" text-anchor="middle">GPU · CPU · 网络</text></g><g class="component"><rect x="1440" y="560" width="190" height="70" rx="12" fill="#FFFFFF" stroke="#E6A15B" stroke-width="1.5"/><rect x="1440" y="560" width="5" height="70" rx="3" fill="#C96D20"/><text x="1535" y="589" class="box-title" text-anchor="middle">MLflow Run</text><text x="1535" y="612" class="box-line" text-anchor="middle">参数 · Loss · 评估</text></g><g class="component"><rect x="1660" y="560" width="190" height="70" rx="12" fill="#FFFFFF" stroke="#A995E8" stroke-width="1.5"/><rect x="1660" y="560" width="5" height="70" rx="3" fill="#7353BE"/><text x="1755" y="589" class="box-title" text-anchor="middle">任务历史</text><text x="1755" y="612" class="box-line" text-anchor="middle">主体 · 状态 · 时间</text></g><g class="component"><rect x="1050" y="650" width="210" height="62" rx="12" fill="#FFFFFF" stroke="#7BC7A3" stroke-width="1.5"/><rect x="1050" y="650" width="5" height="62" rx="3" fill="#16805D"/><text x="1155" y="679" class="box-title" text-anchor="middle">Checkpoint</text><text x="1155" y="702" class="box-line" text-anchor="middle">个人持久空间</text></g><g class="component"><rect x="1300" y="650" width="210" height="62" rx="12" fill="#FFFFFF" stroke="#7BC7A3" stroke-width="1.5"/><rect x="1300" y="650" width="5" height="62" rx="3" fill="#16805D"/><text x="1405" y="679" class="box-title" text-anchor="middle">训练产物</text><text x="1405" y="702" class="box-line" text-anchor="middle">模型 · 配置 · 摘要</text></g><g class="component"><rect x="1550" y="650" width="250" height="62" rx="12" fill="#FFFFFF" stroke="#E6A15B" stroke-width="1.5"/><rect x="1550" y="650" width="5" height="62" rx="3" fill="#C96D20"/><text x="1675" y="679" class="box-title" text-anchor="middle">Ray Dashboard</text><text x="1675" y="702" class="box-line" text-anchor="middle">仅任务运行期保留</text></g><g class="component"><rect x="150" y="815" width="240" height="84" rx="12" fill="#FFFFFF" stroke="#7BC7A3" stroke-width="1.5"/><rect x="150" y="815" width="5" height="84" rx="3" fill="#16805D"/><text x="270" y="844" class="box-title" text-anchor="middle">SUCCEEDED</text><text x="270" y="867" class="box-line" text-anchor="middle">训练与验证完成</text></g><g class="component"><rect x="430" y="815" width="240" height="84" rx="12" fill="#FFFFFF" stroke="#E79A9A" stroke-width="1.5"/><rect x="430" y="815" width="5" height="84" rx="3" fill="#B54747"/><text x="550" y="844" class="box-title" text-anchor="middle">FAILED</text><text x="550" y="867" class="box-line" text-anchor="middle">保留错误归因</text></g><g class="component"><rect x="710" y="815" width="240" height="84" rx="12" fill="#FFFFFF" stroke="#AAB4C3" stroke-width="1.5"/><rect x="710" y="815" width="5" height="84" rx="3" fill="#667085"/><text x="830" y="844" class="box-title" text-anchor="middle">STOPPED</text><text x="830" y="867" class="box-line" text-anchor="middle">用户或管理员取消</text></g><g class="component"><rect x="990" y="815" width="240" height="84" rx="12" fill="#FFFFFF" stroke="#A995E8" stroke-width="1.5"/><rect x="990" y="815" width="5" height="84" rx="3" fill="#7353BE"/><text x="1110" y="844" class="box-title" text-anchor="middle">TTL 回收</text><text x="1110" y="867" class="box-line" text-anchor="middle">删除 RayCluster</text><text x="1110" y="885" class="box-line" text-anchor="middle">释放 GPU / PVC</text></g><g class="component"><rect x="1270" y="815" width="500" height="84" rx="12" fill="#FFFFFF" stroke="#7BC7A3" stroke-width="1.5"/><rect x="1270" y="815" width="5" height="84" rx="3" fill="#16805D"/><text x="1520" y="844" class="box-title" text-anchor="middle">仍然保留</text><text x="1520" y="867" class="box-line" text-anchor="middle">任务历史 · Loki · Prometheus · MLflow</text><text x="1520" y="885" class="box-line" text-anchor="middle">Checkpoint · 持久结果</text></g><g class="component"><rect x="250" y="925" width="300" height="48" rx="12" fill="#FFFFFF" stroke="#8AB4F8" stroke-width="1.5"/><rect x="250" y="925" width="5" height="48" rx="3" fill="#2166C2"/><text x="400" y="954" class="box-title" text-anchor="middle">重新提交 / 断点续训</text><text x="400" y="977" class="box-line" text-anchor="middle">新任务读取历史 Checkpoint</text></g><g class="component"><rect x="600" y="925" width="330" height="48" rx="12" fill="#FFFFFF" stroke="#8AB4F8" stroke-width="1.5"/><rect x="600" y="925" width="5" height="48" rx="3" fill="#2166C2"/><text x="765" y="954" class="box-title" text-anchor="middle">参数调整</text><text x="765" y="977" class="box-line" text-anchor="middle">用户确认后创建新任务</text></g><g class="component"><rect x="1270" y="925" width="500" height="48" rx="12" fill="#FFFFFF" stroke="#AAB4C3" stroke-width="1.5"/><rect x="1270" y="925" width="5" height="48" rx="3" fill="#667085"/><text x="1520" y="955" class="box-title" text-anchor="middle">Ray Head / Worker / Dashboard 不保留</text></g><g class="legend"><line x1="1205" y1="1040" x2="1241" y2="1040" class="arrow request"/><text x="1249" y="1044" class="legend-text">请求</text><line x1="1317" y1="1040" x2="1353" y2="1040" class="arrow control"/><text x="1361" y="1044" class="legend-text">控制</text><line x1="1429" y1="1040" x2="1465" y2="1040" class="arrow data"/><text x="1473" y="1044" class="legend-text">数据</text><line x1="1541" y1="1040" x2="1577" y2="1040" class="arrow observe"/><text x="1585" y="1044" class="legend-text">观测</text><line x1="1653" y1="1040" x2="1689" y2="1040" class="arrow failure"/><text x="1697" y="1044" class="legend-text">失败</text><line x1="1765" y1="1040" x2="1801" y2="1040" class="arrow planned"/><text x="1809" y="1044" class="legend-text">规划</text></g>
</svg>
